<svg width="92" height="83" viewBox="0 0 92 83" fill="none" xmlns="http://www.w3.org/2000/svg">
<path d="M71.2619 57.9667C82.7151 44.1412 86.5773 29.9598 79.8882 26.2917C73.1992 22.6237 58.492 30.8579 47.0387 44.6834C35.5855 58.509 31.7233 72.6903 38.4124 76.3584C45.1014 80.0265 59.8086 71.7922 71.2619 57.9667Z" fill="#303646"/>
<path d="M69.2692 56.8747C80.7225 43.0492 84.977 29.083 78.7721 25.6804C72.5671 22.2778 58.2522 30.7272 46.799 44.5527C35.3457 58.3782 31.0912 72.3444 37.2962 75.747C43.5012 79.1497 57.816 70.7002 69.2692 56.8747Z" fill="white"/>
<path d="M67.3959 55.848C77.5187 43.6285 81.2791 31.2847 75.7951 28.2774C70.311 25.2701 57.6591 32.7381 47.5363 44.9576C37.4134 57.1771 33.653 69.5209 39.1371 72.5282C44.6212 75.5355 57.2731 68.0675 67.3959 55.848Z" fill="#CD2B31"/>
<path d="M65.0663 54.5667C73.3068 44.6193 76.3679 34.5707 71.9034 32.1224C67.4389 29.6742 57.1394 35.7535 48.8989 45.7009C40.6583 55.6483 37.5972 65.6969 42.0617 68.1451C46.5262 70.5933 56.8257 64.514 65.0663 54.5667Z" fill="white"/>
<path d="M63.7677 53.1616C70.4653 45.0851 72.9561 36.9246 69.3311 34.9347C65.706 32.9447 57.3378 37.8789 50.6401 45.9554C43.9425 54.032 41.4516 62.1925 45.0767 64.1824C48.7018 66.1724 57.07 61.2382 63.7677 53.1616Z" fill="#CD2B31"/>
<path d="M60.3768 51.9978C64.8528 46.5947 66.5152 41.1364 64.0899 39.8064C61.6645 38.4764 56.0698 41.7784 51.5938 47.1815C47.1178 52.5846 45.4554 58.0429 47.8808 59.3729C50.3061 60.7029 55.9008 57.401 60.3768 51.9978Z" fill="white"/>
<path d="M59.0207 50.5568C61.2799 47.8324 62.1197 45.0795 60.8965 44.4081C59.6732 43.7366 56.8501 45.4008 54.5909 48.1251C52.3317 50.8494 51.4919 53.6023 52.7151 54.2738C53.9384 54.9452 56.7615 53.2811 59.0207 50.5568Z" fill="#CD2B31"/>
<path d="M53.7351 44.6213C52.6107 45.2586 49.3275 46.9205 49.2376 47.3169C49.1476 47.7133 52.5845 47.7286 52.9855 47.1095C53.3866 46.4905 53.7351 44.6213 53.7351 44.6213Z" fill="#BAB3B4"/>
<path d="M3.85355 8.58107C4.18712 8.55972 8.21614 8.39506 8.98072 8.74574C9.48958 9.00957 9.9085 9.37348 10.1988 9.80386C7.48904 10.182 5.81747 10.4137 4.92921 9.66054C4.46821 9.26718 4.10838 8.99579 3.91348 8.82502C3.71859 8.65426 3.69239 8.59327 3.85355 8.58107Z" fill="white"/>
<path opacity="0.09" d="M3.85346 8.58107C4.18702 8.55972 8.21604 8.39506 8.98062 8.74574C8.60583 9.07812 5.01903 9.6331 3.91339 8.82502C3.73724 8.66646 3.69229 8.59327 3.85346 8.58107Z" fill="#1F1F39"/>
<path d="M2.69533 7.54121C3.02515 7.51682 7.05796 7.3552 7.81879 7.70283C8.33703 7.97606 8.76034 8.35301 9.04813 8.79754C6.33836 9.17566 4.6555 9.38607 3.76724 8.62069C3.30999 8.22427 2.9502 7.95593 2.75531 7.78517C2.56041 7.6144 2.53417 7.55036 2.69533 7.54121Z" fill="white"/>
<path opacity="0.09" d="M2.69539 7.54124C3.0252 7.51685 7.05801 7.35523 7.81885 7.70286C7.44405 8.03524 5.39767 8.53229 2.75537 7.7852C2.57172 7.62663 2.53422 7.55039 2.69539 7.54124Z" fill="#1F1F39"/>
<path d="M1.3983 6.3244C2.03015 6.44576 2.68204 6.48283 3.3285 6.43417H3.35472C4.71522 6.34879 6.13947 6.3122 6.52176 6.48602C7.07223 6.79829 7.518 7.21759 7.81854 7.70576C5.10877 8.08692 3.35847 8.17231 2.47021 7.40082C2.01296 7.00441 1.65317 6.73607 1.45828 6.5653L1.3983 6.51041C1.26712 6.39148 1.25588 6.33355 1.3983 6.3244Z" fill="white"/>
<path opacity="0.09" d="M1.3983 6.3244C2.03015 6.44576 2.68204 6.48283 3.3285 6.43417H3.35472C4.74146 6.36404 6.18069 6.3427 6.56298 6.51651C6.18819 6.84889 3.56462 7.10198 1.49575 6.59884L1.3983 6.51346C1.26712 6.39149 1.25588 6.33355 1.3983 6.3244Z" fill="#1F1F39"/>
<path d="M0.105503 5.12924C0.43907 5.1079 4.46809 4.94323 5.23267 5.29086C5.7759 5.59772 6.21857 6.00812 6.52199 6.48621C3.81222 6.86433 2.06568 6.9741 1.18116 6.20872C0.720165 5.81535 0.360331 5.54396 0.165437 5.3732C-0.0294561 5.20243 -0.0556588 5.13839 0.105503 5.12924Z" fill="white"/>
<path opacity="0.23" d="M0.105652 5.12918C0.43922 5.10784 4.46824 4.94317 5.23282 5.2908C4.85803 5.62318 2.14825 5.22067 0.165587 5.37314C-0.010567 5.21457 -0.0555094 5.13833 0.105652 5.12918Z" fill="#1F1F39"/>
<path d="M4.42319 4.29053C4.44047 4.50243 4.52719 4.70669 4.67432 4.88211C5.49886 5.97987 51.3438 47.4937 51.4225 47.698C51.4225 47.7285 51.4862 47.7437 51.5686 47.7468C51.6838 47.7503 51.7989 47.739 51.9097 47.7133C52.4644 47.6035 53.2327 47.2315 52.7755 46.6185C52.7347 46.5627 52.6883 46.5096 52.6368 46.46C52.6368 46.46 7.36157 4.22345 6.29341 3.85448C5.44637 3.56174 4.41194 3.68676 4.42319 4.29053Z" fill="#543237"/>
<path d="M10.7908 3.5222C10.7234 3.78749 10.0412 7.02286 10.3748 7.68151C10.6357 8.12523 11.0302 8.50809 11.5217 8.79452C12.3088 6.65998 12.8035 5.32742 11.9789 4.52544C11.5517 4.10768 11.2668 3.78445 11.0794 3.61063C10.892 3.43682 10.8208 3.39108 10.7908 3.5222Z" fill="white"/>
<path opacity="0.09" d="M10.7908 3.52213C10.7234 3.78743 10.0412 7.02279 10.3748 7.68145C10.8246 7.4253 11.934 4.58636 11.0794 3.60142C10.907 3.43066 10.8208 3.39101 10.7908 3.52213Z" fill="#1F1F39"/>
<path d="M9.65927 2.45797C9.59181 2.72326 8.90964 5.95862 9.24321 6.61727C9.51461 7.06793 9.92373 7.45432 10.4313 7.73943C11.2184 5.60489 11.6756 4.26318 10.8473 3.4551C10.4201 3.03734 10.1352 2.71411 9.94783 2.5403C9.76043 2.36649 9.68926 2.3299 9.65927 2.45797Z" fill="white"/>
<path opacity="0.09" d="M9.65927 2.45791C9.59181 2.7232 8.90964 5.95855 9.24321 6.61721C9.69297 6.36107 10.5438 4.76017 9.94783 2.53414C9.77542 2.36948 9.68926 2.32984 9.65927 2.45791Z" fill="#1F1F39"/>
<path d="M8.32852 1.26563C8.40305 1.78975 8.3714 2.32026 8.23482 2.83604C8.23482 2.83604 8.23482 2.85128 8.23482 2.86043C7.96872 3.946 7.75135 5.09256 7.92001 5.42493C8.23489 5.90612 8.69214 6.3159 9.2505 6.61723C10.0376 4.48269 10.3524 3.07084 9.52409 2.26276C9.09683 1.84195 8.81202 1.51872 8.62837 1.34796L8.56839 1.29307C8.42597 1.16805 8.3585 1.14975 8.32852 1.26563Z" fill="white"/>
<path opacity="0.09" d="M8.32851 1.26559C8.40304 1.78971 8.37139 2.32022 8.23481 2.836C8.23481 2.836 8.23481 2.85125 8.23481 2.8604C7.9837 3.97036 7.78506 5.12912 7.95371 5.45845C8.40347 5.2023 9.02563 3.10435 8.65833 1.37842L8.56838 1.28694C8.42596 1.16802 8.35849 1.14972 8.32851 1.26559Z" fill="#1F1F39"/>
<path d="M7.02422 0.0764693C6.95676 0.344812 6.27464 3.58016 6.61196 4.23577C6.91917 4.71289 7.36576 5.12128 7.91248 5.42502C8.69955 3.29047 9.03684 1.88168 8.21604 1.0736C7.78878 0.655842 7.50397 0.332611 7.31657 0.158798C7.12918 -0.0150145 7.05795 -0.0516033 7.02422 0.0764693Z" fill="white"/>
<path opacity="0.23" d="M7.02422 0.0764869C6.95676 0.344829 6.27464 3.58018 6.61196 4.23579C7.06171 3.97965 6.89305 1.73838 7.31657 0.155764C7.14417 -0.0119506 7.05795 -0.0515857 7.02422 0.0764869Z" fill="#1F1F39"/>
<path opacity="0.47" d="M4.4231 4.29053C4.44038 4.50242 4.5271 4.70669 4.67422 4.8821C5.49877 5.97987 51.3437 47.4937 51.4224 47.698C51.4449 47.759 51.6548 47.7651 51.9096 47.7132C46.6138 42.6513 8.74073 8.00463 4.4231 4.29053Z" fill="#1F1F39"/>
<path d="M49.0311 47.4572C48.765 48 55.515 50.7932 56.1897 50.6194H56.2159C56.7294 50.3602 54.1208 44.6518 53.7348 44.6304C53.3488 44.6091 52.5729 46.1978 51.7746 46.8321H51.7559C50.9613 47.4511 49.2147 47.073 49.0311 47.4572Z" fill="white"/>
<path opacity="0.22" d="M49.0311 47.4571C48.765 47.9999 55.515 50.7931 56.1897 50.6193C54.5893 48.7592 52.8653 47.3778 51.7559 46.8351C50.9613 47.451 49.2147 47.0729 49.0311 47.4571Z" fill="#1F1F39"/>
</svg>
