<svg width="96" height="83" viewBox="0 0 96 83" fill="none" xmlns="http://www.w3.org/2000/svg">
<path d="M89.7033 15.4694C94.2325 19.0066 97.4144 24.7855 95.3648 28.5918C93.8307 31.4055 76.0912 68.0347 67.0449 74.3729C56.4118 81.8342 13.0675 82.953 12.1827 82.9992C9.86533 83.117 1.07474 69.7254 0.30769 61.1286C-0.366014 53.6337 3.09989 46.2271 3.33528 45.1462C3.57067 44.0653 25.4904 48.0903 25.4904 48.0903L42.3898 69.8011L89.7033 15.4694Z" fill="#3B3B4D"/>
<path d="M2.08132 44.7423C-5.58917 67.1429 10.2266 80.6817 12.7185 80.4924C41.0506 78.5114 55.2511 77.0184 61.627 73.9649C68.0028 70.9114 97.7472 32.9238 93.563 21.2566C90.2797 12.0541 69.0905 1.52588e-05 69.0905 1.52588e-05C69.0905 1.52588e-05 55.6286 41.4365 46.9394 41.8739C38.2503 42.3113 3.68035 40.078 2.08132 44.7423Z" fill="#545466"/>
<path d="M69.7559 4.87042C75.3078 10.4727 91.0059 19.0233 90.8598 23.0399C90.3688 35.1108 67.0286 67.1261 65.7623 64.8044C64.4961 62.4828 50.673 43.224 52.4344 41.6215C57.7104 36.7721 69.7559 4.87042 69.7559 4.87042Z" fill="white"/>
<path d="M47.0975 44.7549C51.509 57.3978 60.4904 65.8769 58.9725 67.8873C57.4547 69.8977 29.013 75.7902 27.1543 73.7167C25.2955 71.6431 14.707 45.575 15.5998 44.696C16.4927 43.8169 47.0975 44.7549 47.0975 44.7549Z" fill="#3B3B4D"/>
<path d="M15.9085 54.4874C17.3005 61.3262 21.2453 66.226 19.6301 67.4794C18.0148 68.7327 9.04562 70.6338 8.18523 69.7548C7.32484 68.8757 3.60327 58.8194 5.17795 55.0341C5.83542 53.4275 14.7599 48.8346 15.9085 54.4874Z" fill="#3B3B4D"/>
</svg>
